# xmcd
#
# Track frame offsets:
# 150
# 14230
# 23142
# 28452
# 38302
# 51457
# 62867
# 71632
# 77972
# 89445
# 98005
# 107755
# 110840
# 122812
# 135932
# 156847
# 166107
#
# Disc length: 2427 seconds
#
#
# Revision: 0
# Processed by: cddbd v1.5.2PL0 Copyright (c) Steve Scherf et al.
# Submitted via: FreeRIP 2.943 
#
DISCID=e9097911
DTITLE=me infecto - reality and all its friends
DYEAR=2001
DGENRE=Noise
TTITLE0=searching for honesty
TTITLE1=everyone's my enemy
TTITLE2=hordown
TTITLE3=fraction of a person
TTITLE4=innocent day
TTITLE5=soul side
TTITLE6=reality and all its friends
TTITLE7=criminal man
TTITLE8=ode to a motherfucker
TTITLE9=tar covering
TTITLE10=you die!
TTITLE11=just a part of life
TTITLE12=tormented party
TTITLE13=love motherfuckers!
TTITLE14=with beer i'm satisfied-satan
TTITLE15=make ourselves disappear
TTITLE16=conclusion
EXTD=qq
EXTT0=
EXTT1=
EXTT2=
EXTT3=
EXTT4=
EXTT5=
EXTT6=
EXTT7=
EXTT8=
EXTT9=
EXTT10=
EXTT11=
EXTT12=
EXTT13=
EXTT14=
EXTT15=
EXTT16=
PLAYORDER=
